<?xml version="1.0" encoding="UTF-8" standalone="no"?>
<!DOCTYPE svg PUBLIC "-//W3C//DTD SVG 1.1//EN"
 "http://www.w3.org/Graphics/SVG/1.1/DTD/svg11.dtd">
<!-- Generated by graphviz version 16.0.0 (20260814.1018)
 -->
<!-- Title: PilhaHeapEnderecos Pages: 1 -->
<svg width="645pt" height="196pt"
 viewBox="0.00 0.00 645.00 196.00" xmlns="http://www.w3.org/2000/svg" xmlns:xlink="http://www.w3.org/1999/xlink">
<g id="graph0" class="graph" transform="scale(1 1) rotate(0) translate(4 191.5)">
<title>PilhaHeapEnderecos</title>
<!-- pilha -->
<g id="node1" class="node">
<title>pilha</title>
<polygon fill="#1a5fb4" stroke="none" points="0,-150 0,-187.5 290.25,-187.5 290.25,-150 0,-150"/>
<polygon fill="none" stroke="black" points="0,-150 0,-187.5 290.25,-187.5 290.25,-150 0,-150"/>
<text xml:space="preserve" text-anchor="start" x="124.88" y="-166.2" font-family="Segoe UI,Arial" font-weight="bold" font-size="14.00" fill="white">PILHA</text>
<polygon fill="#37474f" stroke="none" points="0,-112.5 0,-150 132.75,-150 132.75,-112.5 0,-112.5"/>
<polygon fill="none" stroke="black" points="0,-112.5 0,-150 132.75,-150 132.75,-112.5 0,-112.5"/>
<text xml:space="preserve" text-anchor="start" x="40.88" y="-128.7" font-family="Segoe UI,Arial" font-weight="bold" font-size="14.00" fill="white">variável</text>
<polygon fill="#37474f" stroke="none" points="132.75,-112.5 132.75,-150 210.75,-150 210.75,-112.5 132.75,-112.5"/>
<polygon fill="none" stroke="black" points="132.75,-112.5 132.75,-150 210.75,-150 210.75,-112.5 132.75,-112.5"/>
<text xml:space="preserve" text-anchor="start" x="141.75" y="-128.7" font-family="Segoe UI,Arial" font-weight="bold" font-size="14.00" fill="white">endereço</text>
<polygon fill="#37474f" stroke="none" points="210.75,-112.5 210.75,-150 290.25,-150 290.25,-112.5 210.75,-112.5"/>
<polygon fill="none" stroke="black" points="210.75,-112.5 210.75,-150 290.25,-150 290.25,-112.5 210.75,-112.5"/>
<text xml:space="preserve" text-anchor="start" x="219.75" y="-128.7" font-family="Segoe UI,Arial" font-weight="bold" font-size="14.00" fill="white">conteúdo</text>
<polygon fill="none" stroke="black" points="0,-75 0,-112.5 132.75,-112.5 132.75,-75 0,-75"/>
<text xml:space="preserve" text-anchor="start" x="23.62" y="-87.75" font-family="Segoe UI,Arial" font-size="14.00">idade : inteiro</text>
<polygon fill="none" stroke="black" points="132.75,-75 132.75,-112.5 210.75,-112.5 210.75,-75 132.75,-75"/>
<text xml:space="preserve" text-anchor="start" x="149.25" y="-90.38" font-family="Consolas" font-size="14.00">0x1000</text>
<polygon fill="none" stroke="black" points="210.75,-75 210.75,-112.5 290.25,-112.5 290.25,-75 210.75,-75"/>
<text xml:space="preserve" text-anchor="start" x="242.25" y="-91.2" font-family="Segoe UI,Arial" font-weight="bold" font-size="14.00">25</text>
<polygon fill="none" stroke="black" points="0,-37.5 0,-75 132.75,-75 132.75,-37.5 0,-37.5"/>
<text xml:space="preserve" text-anchor="start" x="9" y="-50.25" font-family="Segoe UI,Arial" font-size="14.00">numeros : inteiro[]</text>
<polygon fill="none" stroke="black" points="132.75,-37.5 132.75,-75 210.75,-75 210.75,-37.5 132.75,-37.5"/>
<text xml:space="preserve" text-anchor="start" x="149.25" y="-52.88" font-family="Consolas" font-size="14.00">0x1004</text>
<polygon fill="#fff3e0" stroke="none" points="210.75,-37.5 210.75,-75 290.25,-75 290.25,-37.5 210.75,-37.5"/>
<polygon fill="none" stroke="black" points="210.75,-37.5 210.75,-75 290.25,-75 290.25,-37.5 210.75,-37.5"/>
<text xml:space="preserve" text-anchor="start" x="228" y="-51.08" font-family="Consolas" font-weight="bold" font-size="14.00">0x2000</text>
<polygon fill="none" stroke="black" points="0,0 0,-37.5 132.75,-37.5 132.75,0 0,0"/>
<text xml:space="preserve" text-anchor="start" x="19.5" y="-12.75" font-family="Segoe UI,Arial" font-size="14.00">copia : inteiro[]</text>
<polygon fill="none" stroke="black" points="132.75,0 132.75,-37.5 210.75,-37.5 210.75,0 132.75,0"/>
<text xml:space="preserve" text-anchor="start" x="149.25" y="-15.38" font-family="Consolas" font-size="14.00">0x1008</text>
<polygon fill="#fff3e0" stroke="none" points="210.75,0 210.75,-37.5 290.25,-37.5 290.25,0 210.75,0"/>
<polygon fill="none" stroke="black" points="210.75,0 210.75,-37.5 290.25,-37.5 290.25,0 210.75,0"/>
<text xml:space="preserve" text-anchor="start" x="228" y="-13.57" font-family="Consolas" font-weight="bold" font-size="14.00">0x2000</text>
</g>
<!-- heap -->
<g id="node2" class="node">
<title>heap</title>
<polygon fill="#e65100" stroke="none" points="479.25,-93.5 479.25,-131 636.75,-131 636.75,-93.5 479.25,-93.5"/>
<polygon fill="none" stroke="black" points="479.25,-93.5 479.25,-131 636.75,-131 636.75,-93.5 479.25,-93.5"/>
<text xml:space="preserve" text-anchor="start" x="540" y="-109.7" font-family="Segoe UI,Arial" font-weight="bold" font-size="14.00" fill="white">HEAP</text>
<polygon fill="#37474f" stroke="none" points="479.25,-56 479.25,-93.5 557.25,-93.5 557.25,-56 479.25,-56"/>
<polygon fill="none" stroke="black" points="479.25,-56 479.25,-93.5 557.25,-93.5 557.25,-56 479.25,-56"/>
<text xml:space="preserve" text-anchor="start" x="488.25" y="-72.2" font-family="Segoe UI,Arial" font-weight="bold" font-size="14.00" fill="white">endereço</text>
<polygon fill="#37474f" stroke="none" points="557.25,-56 557.25,-93.5 636.75,-93.5 636.75,-56 557.25,-56"/>
<polygon fill="none" stroke="black" points="557.25,-56 557.25,-93.5 636.75,-93.5 636.75,-56 557.25,-56"/>
<text xml:space="preserve" text-anchor="start" x="566.25" y="-72.2" font-family="Segoe UI,Arial" font-weight="bold" font-size="14.00" fill="white">conteúdo</text>
<polygon fill="none" stroke="black" points="479.25,-18.5 479.25,-56 557.25,-56 557.25,-18.5 479.25,-18.5"/>
<text xml:space="preserve" text-anchor="start" x="495.75" y="-32.08" font-family="Consolas" font-weight="bold" font-size="14.00">0x2000</text>
<polygon fill="none" stroke="black" points="557.25,-18.5 557.25,-56 636.75,-56 636.75,-18.5 557.25,-18.5"/>
<text xml:space="preserve" text-anchor="start" x="570.75" y="-31.25" font-family="Segoe UI,Arial" font-size="14.00">{ 1, 2, 3 }</text>
</g>
<!-- pilha&#45;&gt;heap -->
<g id="edge1" class="edge">
<title>pilha:pnum&#45;&gt;heap:alvo</title>
<path fill="none" stroke="#e65100" stroke-width="1.4" d="M290.25,-56.25C290.25,-56.25 426.05,-42.6 467.43,-38.44"/>
<polygon fill="#e65100" stroke="#e65100" stroke-width="1.4" points="467.54,-41.94 477.14,-37.46 466.84,-34.98 467.54,-41.94"/>
<text xml:space="preserve" text-anchor="middle" x="384.75" y="-53.49" font-family="Times New Roman,serif" font-size="12.00" fill="#e65100">guarda o endereço</text>
</g>
<!-- pilha&#45;&gt;heap -->
<g id="edge2" class="edge">
<title>pilha:pcopia&#45;&gt;heap:alvo</title>
<path fill="none" stroke="#e65100" stroke-width="1.4" d="M290.25,-18.75C290.25,-18.75 426.05,-32.04 467.43,-36.09"/>
<polygon fill="#e65100" stroke="#e65100" stroke-width="1.4" points="466.85,-39.55 477.14,-37.04 467.53,-32.59 466.85,-39.55"/>
<text xml:space="preserve" text-anchor="middle" x="384.75" y="-21.35" font-family="Times New Roman,serif" font-size="12.00" fill="#e65100">guarda o endereço</text>
</g>
</g>
</svg>
