<?xml version="1.0" encoding="UTF-8" standalone="no"?>
<!DOCTYPE svg PUBLIC "-//W3C//DTD SVG 1.1//EN"
 "http://www.w3.org/Graphics/SVG/1.1/DTD/svg11.dtd">
<!-- Generated by graphviz version 16.0.0 (20260814.1018)
 -->
<!-- Title: FazerEnquantoMemoria Pages: 1 -->
<svg width="427pt" height="233pt"
 viewBox="0.00 0.00 427.00 233.00" xmlns="http://www.w3.org/2000/svg" xmlns:xlink="http://www.w3.org/1999/xlink">
<g id="graph0" class="graph" transform="scale(1 1) rotate(0) translate(4 229)">
<title>FazerEnquantoMemoria</title>
<!-- tabela -->
<g id="node1" class="node">
<title>tabela</title>
<polygon fill="#1a5fb4" stroke="none" points="0,-187.5 0,-225 75.75,-225 75.75,-187.5 0,-187.5"/>
<polygon fill="none" stroke="black" points="0,-187.5 0,-225 75.75,-225 75.75,-187.5 0,-187.5"/>
<text xml:space="preserve" text-anchor="start" x="9" y="-203.7" font-family="Segoe UI,Arial" font-weight="bold" font-size="14.00" fill="white">tentativa</text>
<polygon fill="#1a5fb4" stroke="none" points="75.75,-187.5 75.75,-225 171,-225 171,-187.5 75.75,-187.5"/>
<polygon fill="none" stroke="black" points="75.75,-187.5 75.75,-225 171,-225 171,-187.5 75.75,-187.5"/>
<text xml:space="preserve" text-anchor="start" x="84.75" y="-203.7" font-family="Segoe UI,Arial" font-weight="bold" font-size="14.00" fill="white">ler(numero)</text>
<polygon fill="#1a5fb4" stroke="none" points="171,-187.5 171,-225 284.25,-225 284.25,-187.5 171,-187.5"/>
<polygon fill="none" stroke="black" points="171,-187.5 171,-225 284.25,-225 284.25,-187.5 171,-187.5"/>
<text xml:space="preserve" text-anchor="start" x="180" y="-203.7" font-family="Segoe UI,Arial" font-weight="bold" font-size="14.00" fill="white">numero &lt;= 0 ?</text>
<polygon fill="#1a5fb4" stroke="none" points="284.25,-187.5 284.25,-225 419.25,-225 419.25,-187.5 284.25,-187.5"/>
<polygon fill="none" stroke="black" points="284.25,-187.5 284.25,-225 419.25,-225 419.25,-187.5 284.25,-187.5"/>
<text xml:space="preserve" text-anchor="start" x="336.75" y="-203.7" font-family="Segoe UI,Arial" font-weight="bold" font-size="14.00" fill="white">ação</text>
<polygon fill="none" stroke="black" points="0,-150 0,-187.5 75.75,-187.5 75.75,-150 0,-150"/>
<text xml:space="preserve" text-anchor="start" x="34.12" y="-162.75" font-family="Segoe UI,Arial" font-size="14.00">1</text>
<polygon fill="none" stroke="black" points="75.75,-150 75.75,-187.5 171,-187.5 171,-150 75.75,-150"/>
<text xml:space="preserve" text-anchor="start" x="117" y="-162.75" font-family="Segoe UI,Arial" font-size="14.00">&#45;3</text>
<polygon fill="none" stroke="black" points="171,-150 171,-187.5 284.25,-187.5 284.25,-150 171,-150"/>
<text xml:space="preserve" text-anchor="start" x="194.62" y="-162.75" font-family="Segoe UI,Arial" font-size="14.00">verdadeiro</text>
<polygon fill="none" stroke="black" points="284.25,-150 284.25,-187.5 419.25,-187.5 419.25,-150 284.25,-150"/>
<text xml:space="preserve" text-anchor="start" x="331.88" y="-162.75" font-family="Segoe UI,Arial" font-size="14.00">repete</text>
<polygon fill="none" stroke="black" points="0,-112.5 0,-150 75.75,-150 75.75,-112.5 0,-112.5"/>
<text xml:space="preserve" text-anchor="start" x="34.12" y="-125.25" font-family="Segoe UI,Arial" font-size="14.00">2</text>
<polygon fill="none" stroke="black" points="75.75,-112.5 75.75,-150 171,-150 171,-112.5 75.75,-112.5"/>
<text xml:space="preserve" text-anchor="start" x="117" y="-125.25" font-family="Segoe UI,Arial" font-size="14.00">&#45;1</text>
<polygon fill="none" stroke="black" points="171,-112.5 171,-150 284.25,-150 284.25,-112.5 171,-112.5"/>
<text xml:space="preserve" text-anchor="start" x="194.62" y="-125.25" font-family="Segoe UI,Arial" font-size="14.00">verdadeiro</text>
<polygon fill="none" stroke="black" points="284.25,-112.5 284.25,-150 419.25,-150 419.25,-112.5 284.25,-112.5"/>
<text xml:space="preserve" text-anchor="start" x="331.88" y="-125.25" font-family="Segoe UI,Arial" font-size="14.00">repete</text>
<polygon fill="none" stroke="black" points="0,-75 0,-112.5 75.75,-112.5 75.75,-75 0,-75"/>
<text xml:space="preserve" text-anchor="start" x="34.12" y="-87.75" font-family="Segoe UI,Arial" font-size="14.00">3</text>
<polygon fill="none" stroke="black" points="75.75,-75 75.75,-112.5 171,-112.5 171,-75 75.75,-75"/>
<text xml:space="preserve" text-anchor="start" x="119.62" y="-87.75" font-family="Segoe UI,Arial" font-size="14.00">0</text>
<polygon fill="none" stroke="black" points="171,-75 171,-112.5 284.25,-112.5 284.25,-75 171,-75"/>
<text xml:space="preserve" text-anchor="start" x="194.62" y="-87.75" font-family="Segoe UI,Arial" font-size="14.00">verdadeiro</text>
<polygon fill="none" stroke="black" points="284.25,-75 284.25,-112.5 419.25,-112.5 419.25,-75 284.25,-75"/>
<text xml:space="preserve" text-anchor="start" x="331.88" y="-87.75" font-family="Segoe UI,Arial" font-size="14.00">repete</text>
<polygon fill="none" stroke="black" points="0,-37.5 0,-75 75.75,-75 75.75,-37.5 0,-37.5"/>
<text xml:space="preserve" text-anchor="start" x="34.12" y="-50.25" font-family="Segoe UI,Arial" font-size="14.00">4</text>
<polygon fill="none" stroke="black" points="75.75,-37.5 75.75,-75 171,-75 171,-37.5 75.75,-37.5"/>
<text xml:space="preserve" text-anchor="start" x="119.62" y="-50.25" font-family="Segoe UI,Arial" font-size="14.00">5</text>
<polygon fill="none" stroke="black" points="171,-37.5 171,-75 284.25,-75 284.25,-37.5 171,-37.5"/>
<text xml:space="preserve" text-anchor="start" x="213" y="-50.25" font-family="Segoe UI,Arial" font-size="14.00">falso</text>
<polygon fill="none" stroke="black" points="284.25,-37.5 284.25,-75 419.25,-75 419.25,-37.5 284.25,-37.5"/>
<text xml:space="preserve" text-anchor="start" x="316.88" y="-50.25" font-family="Segoe UI,Arial" font-size="14.00">sai do ciclo</text>
<polygon fill="#ffebee" stroke="none" points="0,0 0,-37.5 284.25,-37.5 284.25,0 0,0"/>
<polygon fill="none" stroke="black" points="0,0 0,-37.5 284.25,-37.5 284.25,0 0,0"/>
<text xml:space="preserve" text-anchor="start" x="93.38" y="-16.2" font-family="Segoe UI,Arial" font-weight="bold" font-size="14.00">depois do ciclo</text>
<polygon fill="#ffebee" stroke="none" points="284.25,0 284.25,-37.5 419.25,-37.5 419.25,0 284.25,0"/>
<polygon fill="none" stroke="black" points="284.25,0 284.25,-37.5 419.25,-37.5 419.25,0 284.25,0"/>
<text xml:space="preserve" text-anchor="start" x="293.25" y="-16.2" font-family="Segoe UI,Arial" font-size="14.00">numero fica com </text>
<text xml:space="preserve" text-anchor="start" x="402" y="-16.2" font-family="Segoe UI,Arial" font-weight="bold" font-size="14.00">5</text>
</g>
</g>
</svg>
