<?xml version="1.0" encoding="UTF-8" standalone="no"?>
<!DOCTYPE svg PUBLIC "-//W3C//DTD SVG 1.1//EN"
 "http://www.w3.org/Graphics/SVG/1.1/DTD/svg11.dtd">
<!-- Generated by graphviz version 16.0.0 (20260814.1018)
 -->
<!-- Title: TracagemExemploTroca Pages: 1 -->
<svg width="378pt" height="271pt"
 viewBox="0.00 0.00 378.00 271.00" xmlns="http://www.w3.org/2000/svg" xmlns:xlink="http://www.w3.org/1999/xlink">
<g id="graph0" class="graph" transform="scale(1 1) rotate(0) translate(4 266.5)">
<title>TracagemExemploTroca</title>
<!-- tabela -->
<g id="node1" class="node">
<title>tabela</title>
<polygon fill="#1a5fb4" stroke="none" points="0,-225 0,-262.5 130.5,-262.5 130.5,-225 0,-225"/>
<polygon fill="none" stroke="black" points="0,-225 0,-262.5 130.5,-262.5 130.5,-225 0,-225"/>
<text xml:space="preserve" text-anchor="start" x="35.62" y="-241.2" font-family="Segoe UI,Arial" font-weight="bold" font-size="14.00" fill="white">instrução</text>
<polygon fill="#1a5fb4" stroke="none" points="130.5,-225 130.5,-262.5 225.75,-262.5 225.75,-225 130.5,-225"/>
<polygon fill="none" stroke="black" points="130.5,-225 130.5,-262.5 225.75,-262.5 225.75,-225 130.5,-225"/>
<text xml:space="preserve" text-anchor="start" x="174.38" y="-241.2" font-family="Segoe UI,Arial" font-weight="bold" font-size="14.00" fill="white">a</text>
<polygon fill="#1a5fb4" stroke="none" points="225.75,-225 225.75,-262.5 369.75,-262.5 369.75,-225 225.75,-225"/>
<polygon fill="none" stroke="black" points="225.75,-225 225.75,-262.5 369.75,-262.5 369.75,-225 225.75,-225"/>
<text xml:space="preserve" text-anchor="start" x="293.25" y="-241.2" font-family="Segoe UI,Arial" font-weight="bold" font-size="14.00" fill="white">b</text>
<polygon fill="none" stroke="black" points="0,-187.5 0,-225 130.5,-225 130.5,-187.5 0,-187.5"/>
<text xml:space="preserve" text-anchor="start" x="27.75" y="-200.25" font-family="Segoe UI,Arial" font-size="14.00">a:inteiro = 3</text>
<polygon fill="none" stroke="black" points="130.5,-187.5 130.5,-225 225.75,-225 225.75,-187.5 130.5,-187.5"/>
<text xml:space="preserve" text-anchor="start" x="174.38" y="-200.25" font-family="Segoe UI,Arial" font-size="14.00">3</text>
<polygon fill="none" stroke="black" points="225.75,-187.5 225.75,-225 369.75,-225 369.75,-187.5 225.75,-187.5"/>
<text xml:space="preserve" text-anchor="start" x="247.5" y="-200.25" font-family="Segoe UI,Arial" font-size="14.00">ainda não existe</text>
<polygon fill="none" stroke="black" points="0,-150 0,-187.5 130.5,-187.5 130.5,-150 0,-150"/>
<text xml:space="preserve" text-anchor="start" x="27" y="-162.75" font-family="Segoe UI,Arial" font-size="14.00">b:inteiro = 5</text>
<polygon fill="none" stroke="black" points="130.5,-150 130.5,-187.5 225.75,-187.5 225.75,-150 130.5,-150"/>
<text xml:space="preserve" text-anchor="start" x="174.38" y="-162.75" font-family="Segoe UI,Arial" font-size="14.00">3</text>
<polygon fill="none" stroke="black" points="225.75,-150 225.75,-187.5 369.75,-187.5 369.75,-150 225.75,-150"/>
<text xml:space="preserve" text-anchor="start" x="294" y="-162.75" font-family="Segoe UI,Arial" font-size="14.00">5</text>
<polygon fill="none" stroke="black" points="0,-112.5 0,-150 130.5,-150 130.5,-112.5 0,-112.5"/>
<text xml:space="preserve" text-anchor="start" x="37.12" y="-125.25" font-family="Segoe UI,Arial" font-size="14.00">a = a + b</text>
<polygon fill="none" stroke="black" points="130.5,-112.5 130.5,-150 225.75,-150 225.75,-112.5 130.5,-112.5"/>
<text xml:space="preserve" text-anchor="start" x="152.25" y="-125.25" font-family="Segoe UI,Arial" font-size="14.00">3+5 → 8</text>
<polygon fill="none" stroke="black" points="225.75,-112.5 225.75,-150 369.75,-150 369.75,-112.5 225.75,-112.5"/>
<text xml:space="preserve" text-anchor="start" x="294" y="-125.25" font-family="Segoe UI,Arial" font-size="14.00">5</text>
<polygon fill="none" stroke="black" points="0,-75 0,-112.5 130.5,-112.5 130.5,-75 0,-75"/>
<text xml:space="preserve" text-anchor="start" x="38.62" y="-87.75" font-family="Segoe UI,Arial" font-size="14.00">b = a &#45; b</text>
<polygon fill="none" stroke="black" points="130.5,-75 130.5,-112.5 225.75,-112.5 225.75,-75 130.5,-75"/>
<text xml:space="preserve" text-anchor="start" x="174.38" y="-87.75" font-family="Segoe UI,Arial" font-size="14.00">8</text>
<polygon fill="none" stroke="black" points="225.75,-75 225.75,-112.5 369.75,-112.5 369.75,-75 225.75,-75"/>
<text xml:space="preserve" text-anchor="start" x="274.12" y="-87.75" font-family="Segoe UI,Arial" font-size="14.00">8&#45;5 → 3</text>
<polygon fill="none" stroke="black" points="0,-37.5 0,-75 130.5,-75 130.5,-37.5 0,-37.5"/>
<text xml:space="preserve" text-anchor="start" x="39.38" y="-50.25" font-family="Segoe UI,Arial" font-size="14.00">a = a &#45; b</text>
<polygon fill="none" stroke="black" points="130.5,-37.5 130.5,-75 225.75,-75 225.75,-37.5 130.5,-37.5"/>
<text xml:space="preserve" text-anchor="start" x="154.5" y="-50.25" font-family="Segoe UI,Arial" font-size="14.00">8&#45;3 → 5</text>
<polygon fill="none" stroke="black" points="225.75,-37.5 225.75,-75 369.75,-75 369.75,-37.5 225.75,-37.5"/>
<text xml:space="preserve" text-anchor="start" x="294" y="-50.25" font-family="Segoe UI,Arial" font-size="14.00">3</text>
<polygon fill="#ffebee" stroke="none" points="0,0 0,-37.5 130.5,-37.5 130.5,0 0,0"/>
<polygon fill="none" stroke="black" points="0,0 0,-37.5 130.5,-37.5 130.5,0 0,0"/>
<text xml:space="preserve" text-anchor="start" x="9" y="-16.2" font-family="Segoe UI,Arial" font-weight="bold" font-size="14.00">escrever(a, &quot; &quot;, b)</text>
<polygon fill="#ffebee" stroke="none" points="130.5,0 130.5,-37.5 369.75,-37.5 369.75,0 130.5,0"/>
<polygon fill="none" stroke="black" points="130.5,0 130.5,-37.5 369.75,-37.5 369.75,0 130.5,0"/>
<text xml:space="preserve" text-anchor="start" x="139.5" y="-16.2" font-family="Segoe UI,Arial" font-size="14.00">mostra </text>
<text xml:space="preserve" text-anchor="start" x="185.25" y="-16.2" font-family="Segoe UI,Arial" font-weight="bold" font-size="14.00">5 3</text>
<text xml:space="preserve" text-anchor="start" x="205.5" y="-16.2" font-family="Segoe UI,Arial" font-size="14.00"> &#45;&#45; a e b trocaram entre si</text>
</g>
</g>
</svg>
