<?xml version="1.0" encoding="UTF-8" standalone="no"?>
<!DOCTYPE svg PUBLIC "-//W3C//DTD SVG 1.1//EN"
 "http://www.w3.org/Graphics/SVG/1.1/DTD/svg11.dtd">
<!-- Generated by graphviz version 16.0.0 (20260814.1018)
 -->
<!-- Title: LinhasIndependentes Pages: 1 -->
<svg width="153pt" height="311pt"
 viewBox="0.00 0.00 153.00 311.00" xmlns="http://www.w3.org/2000/svg" xmlns:xlink="http://www.w3.org/1999/xlink">
<g id="graph0" class="graph" transform="scale(1 1) rotate(0) translate(4 307)">
<title>LinhasIndependentes</title>
<!-- antes -->
<g id="node1" class="node">
<title>antes</title>
<polygon fill="#1a5fb4" stroke="none" points="3.75,-261.5 3.75,-303 116.25,-303 116.25,-261.5 3.75,-261.5"/>
<polygon fill="none" stroke="black" points="3.75,-261.5 3.75,-303 116.25,-303 116.25,-261.5 3.75,-261.5"/>
<text xml:space="preserve" text-anchor="start" x="42.75" y="-279.7" font-family="Segoe UI,Arial" font-weight="bold" font-size="14.00" fill="white">antes</text>
<polygon fill="#e3f2fd" stroke="none" points="3.75,-220 3.75,-261.5 57.25,-261.5 57.25,-220 3.75,-220"/>
<polygon fill="none" stroke="black" points="3.75,-220 3.75,-261.5 57.25,-261.5 57.25,-220 3.75,-220"/>
<text xml:space="preserve" text-anchor="start" x="14.75" y="-238.2" font-family="Segoe UI,Arial" font-weight="bold" font-size="14.00">m[0]</text>
<polygon fill="none" stroke="black" points="57.25,-220 57.25,-261.5 86.75,-261.5 86.75,-220 57.25,-220"/>
<text xml:space="preserve" text-anchor="start" x="68.25" y="-234.75" font-family="Segoe UI,Arial" font-size="14.00">1</text>
<polygon fill="none" stroke="black" points="86.75,-220 86.75,-261.5 116.25,-261.5 116.25,-220 86.75,-220"/>
<text xml:space="preserve" text-anchor="start" x="97.75" y="-234.75" font-family="Segoe UI,Arial" font-size="14.00">2</text>
<polygon fill="#e3f2fd" stroke="none" points="3.75,-178.5 3.75,-220 57.25,-220 57.25,-178.5 3.75,-178.5"/>
<polygon fill="none" stroke="black" points="3.75,-178.5 3.75,-220 57.25,-220 57.25,-178.5 3.75,-178.5"/>
<text xml:space="preserve" text-anchor="start" x="14.75" y="-196.7" font-family="Segoe UI,Arial" font-weight="bold" font-size="14.00">m[1]</text>
<polygon fill="none" stroke="black" points="57.25,-178.5 57.25,-220 86.75,-220 86.75,-178.5 57.25,-178.5"/>
<text xml:space="preserve" text-anchor="start" x="68.25" y="-193.25" font-family="Segoe UI,Arial" font-size="14.00">1</text>
<polygon fill="none" stroke="black" points="86.75,-178.5 86.75,-220 116.25,-220 116.25,-178.5 86.75,-178.5"/>
<text xml:space="preserve" text-anchor="start" x="97.75" y="-193.25" font-family="Segoe UI,Arial" font-size="14.00">2</text>
</g>
<!-- depois -->
<g id="node2" class="node">
<title>depois</title>
<polygon fill="#1a5fb4" stroke="none" points="0,-83 0,-124.5 120,-124.5 120,-83 0,-83"/>
<polygon fill="none" stroke="black" points="0,-83 0,-124.5 120,-124.5 120,-83 0,-83"/>
<text xml:space="preserve" text-anchor="start" x="38.25" y="-101.2" font-family="Segoe UI,Arial" font-weight="bold" font-size="14.00" fill="white">depois</text>
<polygon fill="#fff3e0" stroke="none" points="0,-41.5 0,-83 53.5,-83 53.5,-41.5 0,-41.5"/>
<polygon fill="none" stroke="black" points="0,-41.5 0,-83 53.5,-83 53.5,-41.5 0,-41.5"/>
<text xml:space="preserve" text-anchor="start" x="11" y="-59.7" font-family="Segoe UI,Arial" font-weight="bold" font-size="14.00">m[0]</text>
<polygon fill="none" stroke="black" points="53.5,-41.5 53.5,-83 90.5,-83 90.5,-41.5 53.5,-41.5"/>
<text xml:space="preserve" text-anchor="start" x="64.5" y="-56.25" font-family="Segoe UI,Arial" font-size="14.00">99</text>
<polygon fill="none" stroke="black" points="90.5,-41.5 90.5,-83 120,-83 120,-41.5 90.5,-41.5"/>
<text xml:space="preserve" text-anchor="start" x="101.5" y="-56.25" font-family="Segoe UI,Arial" font-size="14.00">2</text>
<polygon fill="#e3f2fd" stroke="none" points="0,0 0,-41.5 53.5,-41.5 53.5,0 0,0"/>
<polygon fill="none" stroke="black" points="0,0 0,-41.5 53.5,-41.5 53.5,0 0,0"/>
<text xml:space="preserve" text-anchor="start" x="11" y="-18.2" font-family="Segoe UI,Arial" font-weight="bold" font-size="14.00">m[1]</text>
<polygon fill="none" stroke="black" points="53.5,0 53.5,-41.5 90.5,-41.5 90.5,0 53.5,0"/>
<text xml:space="preserve" text-anchor="start" x="68.25" y="-14.75" font-family="Segoe UI,Arial" font-size="14.00">1</text>
<polygon fill="none" stroke="black" points="90.5,0 90.5,-41.5 120,-41.5 120,0 90.5,0"/>
<text xml:space="preserve" text-anchor="start" x="101.5" y="-14.75" font-family="Segoe UI,Arial" font-size="14.00">2</text>
</g>
<!-- antes&#45;&gt;depois -->
<g id="edge1" class="edge">
<title>antes&#45;&gt;depois</title>
<path fill="none" stroke="#555555" d="M60,-178.51C60,-164.69 60,-149.88 60,-135.64"/>
<polygon fill="#555555" stroke="#555555" points="63.5,-135.89 60,-125.89 56.5,-135.89 63.5,-135.89"/>
<text xml:space="preserve" text-anchor="middle" x="102.38" y="-148.15" font-family="Segoe UI,Arial" font-size="13.00"> &#160;m[0][0] = 99 &#160;</text>
</g>
</g>
</svg>
