<?xml version="1.0" encoding="UTF-8" standalone="no"?>
<!DOCTYPE svg PUBLIC "-//W3C//DTD SVG 1.1//EN"
 "http://www.w3.org/Graphics/SVG/1.1/DTD/svg11.dtd">
<!-- Generated by graphviz version 16.0.0 (20260814.1018)
 -->
<!-- Title: IncluirMerge Pages: 1 -->
<svg width="510pt" height="304pt"
 viewBox="0.00 0.00 510.00 304.00" xmlns="http://www.w3.org/2000/svg" xmlns:xlink="http://www.w3.org/1999/xlink">
<g id="graph0" class="graph" transform="scale(1 1) rotate(0) translate(4 299.5)">
<title>IncluirMerge</title>
<!-- principal -->
<g id="node1" class="node">
<title>principal</title>
<polygon fill="#e3f2fd" stroke="#42a5f5" points="241.75,-295.5 0,-295.5 0,-146.5 241.75,-146.5 241.75,-295.5"/>
<text xml:space="preserve" text-anchor="middle" x="120.88" y="-277.25" font-family="Segoe UI,Arial" font-size="15.00">principal.algo</text>
<text xml:space="preserve" text-anchor="middle" x="120.88" y="-238.25" font-family="Segoe UI,Arial" font-size="15.00">algoritmo &quot;Principal&quot;</text>
<text xml:space="preserve" text-anchor="middle" x="120.88" y="-217.25" font-family="Segoe UI,Arial" font-size="15.00">incluir &quot;geometria.algo&quot; como geo</text>
<text xml:space="preserve" text-anchor="middle" x="120.88" y="-178.25" font-family="Segoe UI,Arial" font-size="15.00">inicio</text>
<text xml:space="preserve" text-anchor="middle" x="120.88" y="-157.25" font-family="Segoe UI,Arial" font-size="15.00"> &#160;&#160;&#160;escrever(geo.areaCirculo(2.0))</text>
</g>
<!-- resultado -->
<g id="node3" class="node">
<title>resultado</title>
<polygon fill="#e8f5e9" stroke="#66bb6a" points="502.25,-188 277.75,-188 277.75,-96 502.25,-96 502.25,-188"/>
<text xml:space="preserve" text-anchor="middle" x="390" y="-169.75" font-family="Segoe UI,Arial" font-size="15.00">funções ganham sempre o</text>
<text xml:space="preserve" text-anchor="middle" x="390" y="-148.75" font-family="Segoe UI,Arial" font-size="15.00">prefixo do alias: geo.areaCirculo</text>
<text xml:space="preserve" text-anchor="middle" x="390" y="-127.75" font-family="Segoe UI,Arial" font-size="15.00">constante/variável global</text>
<text xml:space="preserve" text-anchor="middle" x="390" y="-106.75" font-family="Segoe UI,Arial" font-size="15.00">continuam sem prefixo: PI</text>
</g>
<!-- principal&#45;&gt;resultado -->
<g id="edge1" class="edge">
<title>principal&#45;&gt;resultado</title>
<path fill="none" stroke="#555555" d="M242.15,-185.43C250.25,-183.04 258.4,-180.62 266.51,-178.23"/>
<polygon fill="#555555" stroke="#555555" points="267.46,-181.59 276.06,-175.4 265.48,-174.88 267.46,-181.59"/>
</g>
<!-- geometria -->
<g id="node2" class="node">
<title>geometria</title>
<polygon fill="#fff8e1" stroke="#f9a825" points="230.88,-128 10.88,-128 10.88,0 230.88,0 230.88,-128"/>
<text xml:space="preserve" text-anchor="middle" x="120.88" y="-109.75" font-family="Segoe UI,Arial" font-size="15.00">geometria.algo</text>
<text xml:space="preserve" text-anchor="middle" x="120.88" y="-70.75" font-family="Segoe UI,Arial" font-size="15.00">constante PI:decimal = 3.14159</text>
<text xml:space="preserve" text-anchor="middle" x="120.88" y="-31.75" font-family="Segoe UI,Arial" font-size="15.00">funcao areaCirculo(raio)</text>
<text xml:space="preserve" text-anchor="middle" x="120.88" y="-10.75" font-family="Segoe UI,Arial" font-size="15.00"> &#160;&#160;&#160;retornar PI * raio * raio</text>
</g>
<!-- geometria&#45;&gt;resultado -->
<g id="edge2" class="edge">
<title>geometria&#45;&gt;resultado</title>
<path fill="none" stroke="#555555" d="M231.3,-95.95C242.99,-99.37 254.94,-102.85 266.77,-106.31"/>
<polygon fill="#555555" stroke="#555555" points="265.55,-109.6 276.13,-109.04 267.51,-102.88 265.55,-109.6"/>
</g>
</g>
</svg>
