<?xml version="1.0" encoding="UTF-8" standalone="no"?>
<!DOCTYPE svg PUBLIC "-//W3C//DTD SVG 1.1//EN"
 "http://www.w3.org/Graphics/SVG/1.1/DTD/svg11.dtd">
<!-- Generated by graphviz version 16.0.0 (20260814.1018)
 -->
<!-- Title: EstruturaCopia Pages: 1 -->
<svg width="168pt" height="311pt"
 viewBox="0.00 0.00 168.00 311.00" xmlns="http://www.w3.org/2000/svg" xmlns:xlink="http://www.w3.org/1999/xlink">
<g id="graph0" class="graph" transform="scale(1 1) rotate(0) translate(4 307)">
<title>EstruturaCopia</title>
<!-- antes -->
<g id="node1" class="node">
<title>antes</title>
<polygon fill="#1a5fb4" stroke="none" points="0,-261.5 0,-303 160.25,-303 160.25,-261.5 0,-261.5"/>
<polygon fill="none" stroke="black" points="0,-261.5 0,-303 160.25,-303 160.25,-261.5 0,-261.5"/>
<text xml:space="preserve" text-anchor="start" x="42.25" y="-279.7" font-family="Segoe UI,Arial" font-weight="bold" font-size="14.00" fill="white">antes: b = a</text>
<polygon fill="#e3f2fd" stroke="none" points="0,-220 0,-261.5 70,-261.5 70,-220 0,-220"/>
<polygon fill="none" stroke="black" points="0,-220 0,-261.5 70,-261.5 70,-220 0,-220"/>
<text xml:space="preserve" text-anchor="start" x="12.5" y="-238.2" font-family="Segoe UI,Arial" font-weight="bold" font-size="14.00">a.x, a.y</text>
<polygon fill="none" stroke="black" points="70,-220 70,-261.5 160.25,-261.5 160.25,-220 70,-220"/>
<text xml:space="preserve" text-anchor="start" x="104.25" y="-234.75" font-family="Segoe UI,Arial" font-size="14.00">1, 2</text>
<polygon fill="#e3f2fd" stroke="none" points="0,-178.5 0,-220 70,-220 70,-178.5 0,-178.5"/>
<polygon fill="none" stroke="black" points="0,-178.5 0,-220 70,-220 70,-178.5 0,-178.5"/>
<text xml:space="preserve" text-anchor="start" x="11" y="-196.7" font-family="Segoe UI,Arial" font-weight="bold" font-size="14.00">b.x, b.y</text>
<polygon fill="none" stroke="black" points="70,-178.5 70,-220 160.25,-220 160.25,-178.5 70,-178.5"/>
<text xml:space="preserve" text-anchor="start" x="81" y="-193.25" font-family="Segoe UI,Arial" font-size="14.00">1, 2 (cópia)</text>
</g>
<!-- depois -->
<g id="node2" class="node">
<title>depois</title>
<polygon fill="#1a5fb4" stroke="none" points="19.5,-83 19.5,-124.5 140.75,-124.5 140.75,-83 19.5,-83"/>
<polygon fill="none" stroke="black" points="19.5,-83 19.5,-124.5 140.75,-124.5 140.75,-83 19.5,-83"/>
<text xml:space="preserve" text-anchor="start" x="58.38" y="-101.2" font-family="Segoe UI,Arial" font-weight="bold" font-size="14.00" fill="white">depois</text>
<polygon fill="#e3f2fd" stroke="none" points="19.5,-41.5 19.5,-83 89.5,-83 89.5,-41.5 19.5,-41.5"/>
<polygon fill="none" stroke="black" points="19.5,-41.5 19.5,-83 89.5,-83 89.5,-41.5 19.5,-41.5"/>
<text xml:space="preserve" text-anchor="start" x="32" y="-59.7" font-family="Segoe UI,Arial" font-weight="bold" font-size="14.00">a.x, a.y</text>
<polygon fill="none" stroke="black" points="89.5,-41.5 89.5,-83 140.75,-83 140.75,-41.5 89.5,-41.5"/>
<text xml:space="preserve" text-anchor="start" x="104.25" y="-56.25" font-family="Segoe UI,Arial" font-size="14.00">1, 2</text>
<polygon fill="#fff3e0" stroke="none" points="19.5,0 19.5,-41.5 89.5,-41.5 89.5,0 19.5,0"/>
<polygon fill="none" stroke="black" points="19.5,0 19.5,-41.5 89.5,-41.5 89.5,0 19.5,0"/>
<text xml:space="preserve" text-anchor="start" x="30.5" y="-18.2" font-family="Segoe UI,Arial" font-weight="bold" font-size="14.00">b.x, b.y</text>
<polygon fill="none" stroke="black" points="89.5,0 89.5,-41.5 140.75,-41.5 140.75,0 89.5,0"/>
<text xml:space="preserve" text-anchor="start" x="100.5" y="-14.75" font-family="Segoe UI,Arial" font-size="14.00">99, 2</text>
</g>
<!-- antes&#45;&gt;depois -->
<g id="edge1" class="edge">
<title>antes&#45;&gt;depois</title>
<path fill="none" stroke="#555555" d="M80.12,-178.51C80.12,-164.69 80.12,-149.88 80.12,-135.64"/>
<polygon fill="#555555" stroke="#555555" points="83.63,-135.89 80.13,-125.89 76.63,-135.89 83.63,-135.89"/>
<text xml:space="preserve" text-anchor="middle" x="110.88" y="-148.15" font-family="Segoe UI,Arial" font-size="13.00"> &#160;b.x = 99 &#160;</text>
</g>
</g>
</svg>
